<svg width="40" height="47" viewBox="0 0 40 47" fill="none" xmlns="http://www.w3.org/2000/svg">
<g clip-path="url(#clip0)">
<path d="M36.8876 41.7302L40.5314 0H0L0.047619 0.541521L3.63809 41.7361L3.66857 42.0789L20.1124 46.75H20.3714L36.8533 42.075L36.8838 41.7322L36.8876 41.7302ZM20.301 9.1143H32.0781L31.7238 13.3218L20.1048 18.6046L20.299 19.5551H31.2019L29.9467 34.2639L20.259 37.0104L10.5752 34.2677L9.96571 27.2241H13.9524L14.2724 30.7946L14.3029 31.1413L20.179 32.7386H20.4324L26.2438 31.0868L26.2724 30.742L26.821 24.1464L26.8648 23.6087H9.63238L9.27048 19.3759L21.2876 14.1146L21.0971 13.1601H8.75429L8.4019 9.10846H20.2876L20.301 9.1143Z" fill="black"/>
</g>
<defs>
<clipPath id="clip0">
<rect width="40" height="46.75" fill="white"/>
</clipPath>
</defs>
</svg>
