<svg width="64" height="64" viewBox="0 0 64 64" fill="none" xmlns="http://www.w3.org/2000/svg">
<path d="M26.7193 50.9401H26.72C28.8151 50.9401 30.6641 50.4548 31.9846 49.1509C33.3059 47.8463 34.0067 45.8128 34.0067 42.9201V29.6801V29.1801H33.5067H29.7733H29.2733V29.6801V42.8001C29.2733 44.5335 28.9532 45.5104 28.4815 46.0567C28.028 46.582 27.3464 46.8068 26.3467 46.8068L26.343 46.8068C25.6193 46.8121 24.9 46.695 24.2154 46.4604L23.6481 46.2661L23.5589 46.8591L23.1056 49.8724L23.0424 50.2922L23.4464 50.4226C24.5039 50.764 25.6081 50.9386 26.7193 50.9401ZM36.1969 48.951L36.093 49.3401L42.2 50.4135V50.9135C42.2003 50.9135 42.2006 50.9135 42.2009 50.9135C44.9216 50.9133 46.9863 50.1789 48.3781 48.9576C49.7743 47.7326 50.4467 46.0574 50.4467 44.2801C50.4467 42.705 49.9839 41.3999 49.0245 40.3155C48.0784 39.2462 46.6803 38.4264 44.8706 37.7459C43.5071 37.2245 42.6005 36.8048 42.0326 36.3499C41.5041 35.9265 41.2867 35.4889 41.2867 34.8668C41.2867 34.4099 41.4749 33.9374 41.9066 33.5715C42.341 33.2033 43.0594 32.9135 44.16 32.9135L44.1641 32.9134C45.5013 32.9024 46.8214 33.213 48.0134 33.8191L48.548 34.091L48.7192 33.5161L49.6125 30.5161L49.7354 30.1037L49.3458 29.9208C47.7481 29.1709 45.9964 28.8076 44.2324 28.8601C41.9233 28.8616 39.9982 29.5181 38.6406 30.6551C37.2759 31.7981 36.5133 33.405 36.5133 35.2268C36.5133 36.8261 37.1074 38.1338 38.1529 39.1902C39.1843 40.2323 40.6408 41.0171 42.3615 41.6297C43.6519 42.1154 44.4701 42.5183 44.9697 42.9658C45.4302 43.3785 45.6333 43.8412 45.6333 44.5468C45.6333 45.2334 45.3654 45.781 44.8655 46.1682C44.3523 46.5657 43.5507 46.8261 42.4448 46.8201C40.7992 46.796 39.1858 46.3597 37.7523 45.5513L37.1902 45.2343L37.0236 45.8577L36.1969 48.951ZM53.9 53.9001H9.03333V9.03345H53.9V53.9001Z" fill="black" stroke="black"/>
</svg>
