<svg width="57" height="50" viewBox="0 0 57 50" fill="none" xmlns="http://www.w3.org/2000/svg">
<g clip-path="url(#clip0)">
<path d="M33.1291 24.9459C33.1291 27.7188 30.8812 29.9667 28.1083 29.9667C25.3354 29.9667 23.0875 27.7188 23.0875 24.9459C23.0875 22.173 25.3354 19.925 28.1083 19.925C30.8812 19.925 33.1291 22.173 33.1291 24.9459Z" fill="black"/>
<path d="M28.1063 36.4459C27.6875 36.4564 27.1938 36.4626 26.6979 36.4626C20.8417 36.4626 15.1938 35.5772 9.87919 33.9334L10.2813 34.0397C7.46669 33.1314 5.02711 31.7918 2.9042 30.0751L2.94795 30.1084C1.3042 28.9189 0.197945 27.0772 0.0104451 24.9689L0.00836182 24.9418C0.00836182 21.6209 3.64794 18.3709 9.76044 16.2501C14.9938 14.5272 21.0167 13.5334 27.2709 13.5334C27.5604 13.5334 27.85 13.5355 28.1396 13.5397H28.0959C28.3375 13.5355 28.6209 13.5334 28.9063 13.5334C35.0834 13.5334 41.0313 14.5105 46.6063 16.3189L46.2 16.2043C48.9188 17.0876 51.2792 18.3626 53.3521 19.9834L53.3021 19.9459C54.9167 21.0834 56.0063 22.8709 56.1896 24.9189L56.1917 24.9459C56.1917 28.3959 52.1209 31.8876 45.5604 34.0584C40.6375 35.5772 34.9771 36.4522 29.1125 36.4522C28.7584 36.4522 28.4063 36.448 28.0542 36.4418H28.1063V36.4459ZM28.1063 15.9459C27.8854 15.9418 27.6229 15.9418 27.3604 15.9418C21.3584 15.9418 15.5771 16.8834 10.1542 18.6272L10.5521 18.5168C4.93128 20.4772 2.41044 23.1584 2.41044 24.948C2.41044 26.8084 5.12086 29.7397 11.0625 31.7689C15.7479 33.2209 21.1334 34.0584 26.7146 34.0584C27.2042 34.0584 27.6917 34.0522 28.1771 34.0397L28.1063 34.0418C28.4104 34.048 28.7688 34.0522 29.1271 34.0522C34.7188 34.0522 40.1146 33.2189 45.2 31.6709L44.8104 31.773C50.9771 29.723 53.8104 26.7918 53.8104 24.9397C53.5979 23.6105 52.8479 22.4897 51.7979 21.7834L51.7813 21.773C49.9771 20.3689 47.8729 19.2376 45.5938 18.4939L45.4479 18.4522C40.5146 16.8564 34.8375 15.9355 28.9479 15.9355C28.6521 15.9355 28.3584 15.9376 28.0646 15.9418H28.1084L28.1063 15.9459Z" fill="black"/>
<path d="M16.7146 49.971C16.6813 49.971 16.6417 49.9731 16.6042 49.9731C15.6605 49.9731 14.7751 49.7252 14.0105 49.2918L14.0376 49.3064C11.1667 47.6397 10.1667 42.8647 11.3709 36.5127C12.823 29.996 15.1771 24.2335 18.3376 19.0127L18.1938 19.271C21.3167 13.7397 25.0896 9.0085 29.4959 4.95433L29.5376 4.91683C31.4605 3.1585 33.7105 1.71475 36.1771 0.691829L36.3292 0.635579C37.1771 0.227246 38.173 -0.0102539 39.225 -0.0102539C40.2688 -0.0102539 41.2584 0.225163 42.1417 0.643913L42.1001 0.627246C45.0896 2.34808 46.0813 7.62725 44.6792 14.3897C43.1792 20.571 40.8917 26.0147 37.8834 30.971L38.0292 30.7147C35.0042 36.1939 31.3438 40.8856 27.0584 44.921L27.0292 44.9481C25.0334 46.7752 22.6896 48.2606 20.1105 49.2856L19.9563 49.3397C18.998 49.7168 17.8896 49.9481 16.7292 49.9752H16.7167L16.7146 49.971ZM19.2251 19.8731L20.2646 20.4731C17.3876 25.2231 15.1292 30.7356 13.7938 36.5981L13.723 36.9731C12.6126 42.8252 13.6834 46.3439 15.223 47.2356C15.6209 47.4481 16.0917 47.571 16.5917 47.571C16.6334 47.571 16.6771 47.571 16.7188 47.5689H16.7126C18.7021 47.5689 21.8334 46.3085 25.4542 43.1481C29.5709 39.2585 33.0667 34.7668 35.8126 29.8064L35.9542 29.5252C38.7001 25.0335 40.8938 19.8314 42.2563 14.3022L42.3355 13.9231C43.6459 7.55225 42.5146 3.65225 40.9063 2.71891C40.4105 2.52308 39.8355 2.41058 39.2355 2.41058C38.4771 2.41058 37.7605 2.59183 37.1271 2.91058L37.1542 2.89808C34.8251 3.86683 32.8251 5.16058 31.098 6.74391L31.1126 6.73141C26.8605 10.6502 23.2542 15.1835 20.4126 20.2064L20.2688 20.4814L19.2251 19.8731Z" fill="black"/>
<path d="M39.5001 49.9999C36.7792 49.9999 33.3334 48.3603 29.7292 45.2583C25.198 41.127 21.3605 36.3374 18.3459 31.0208L18.1959 30.7353C15.2167 25.8416 12.8813 20.1624 11.498 14.1208L11.423 13.7353C11.0855 12.2583 10.8917 10.5645 10.8917 8.82493C10.8917 7.72701 10.9688 6.64993 11.1167 5.59368L11.1021 5.71451C11.2792 3.63535 12.3688 1.84368 13.9605 0.716597L13.9813 0.702014C16.9605 -1.02715 22.0334 0.752014 27.1938 5.34368C31.4063 9.33118 35.0021 13.9124 37.8563 18.9687L38.0063 19.2562C40.9813 24.0416 43.3334 29.5916 44.7605 35.502L44.8396 35.8895C45.1792 37.3666 45.3751 39.0645 45.3751 40.8062C45.3751 42.0083 45.2834 43.1874 45.1042 44.3395L45.1209 44.2103C44.9063 46.3395 43.7792 48.1708 42.1438 49.327L42.1209 49.3416C41.3959 49.7562 40.5292 49.9999 39.6063 49.9999C39.5688 49.9999 39.5313 49.9999 39.4938 49.9978H39.5001V49.9999ZM20.2751 29.5353C23.3126 34.8916 26.9771 39.4749 31.2563 43.402L31.298 43.4395C35.8105 47.3208 39.3896 48.1603 40.9396 47.2603C42.5501 46.3312 43.7292 42.5187 42.5105 36.3583C41.048 30.3374 38.7876 25.0374 35.8042 20.2312L35.9396 20.4645C33.0667 15.3478 29.6334 10.9603 25.6313 7.16451L25.6063 7.1416C20.7438 2.82076 16.8042 1.84993 15.1938 2.7791C14.2084 3.58118 13.5605 4.76243 13.4751 6.09785V6.11243C13.3605 6.92493 13.2959 7.86243 13.2959 8.8166C13.2959 10.3937 13.4751 11.927 13.8126 13.402L13.7855 13.2645C15.1876 19.4145 17.4251 24.8458 20.4146 29.7728L20.2771 29.5291L20.2751 29.5353Z" fill="black"/>
</g>
<defs>
<clipPath id="clip0">
<rect width="56.25" height="50" fill="white"/>
</clipPath>
</defs>
</svg>
