<svg width="50" height="50" viewBox="0 0 50 50" fill="none" xmlns="http://www.w3.org/2000/svg">
<g clip-path="url(#clip0)">
<path d="M35.1896 35.733C32.6417 35.733 30.5709 33.6601 30.5709 31.1122C30.5709 28.5642 32.6438 26.4934 35.1896 26.4934C37.7354 26.4934 39.8104 28.5642 39.8104 31.1122C39.8104 33.6601 37.7375 35.733 35.1896 35.733ZM35.1896 29.6205C34.3646 29.6205 33.6959 30.2892 33.6959 31.1142C33.6959 31.9392 34.3667 32.6101 35.1896 32.6101C36.0146 32.6101 36.6854 31.9392 36.6854 31.1142C36.6854 30.2892 36.0146 29.6205 35.1896 29.6205Z" fill="black"/>
<path d="M11.4521 50.0352C8.17291 50.0352 5.26249 49.0123 3.12499 46.8748C-2.05001 41.7019 -0.672925 31.6311 6.39791 22.9269C6.93958 22.2561 7.92291 22.1519 8.59583 22.6998C9.26458 23.2436 9.36666 24.2269 8.82291 24.8977C2.87916 32.2144 1.37916 40.7123 5.33541 44.6665C9.81458 49.1436 20.0208 46.504 27.625 38.9019C29.4688 37.0561 31.05 35.0519 32.3271 32.9436C32.7729 32.2061 33.7333 31.9686 34.4729 32.4144C35.2104 32.8602 35.4479 33.8206 35 34.5581C33.5937 36.8831 31.8562 39.0894 29.8354 41.1123C24.0417 46.904 17.1854 50.0352 11.4521 50.0352Z" fill="black"/>
<path d="M13.6938 38.4371C12.4605 38.4371 11.3 37.958 10.4271 37.085C8.62504 35.285 8.62504 32.3538 10.4271 30.5517C12.1709 28.808 15.2146 28.808 16.9605 30.5517C18.7605 32.3517 18.7605 35.283 16.9605 37.085C16.0875 37.958 14.9292 38.4371 13.6938 38.4371ZM13.6938 32.3246C13.2938 32.3246 12.9188 32.4788 12.6375 32.7621C12.0542 33.3434 12.0542 34.2934 12.6375 34.8767C13.2021 35.4413 14.1855 35.4413 14.75 34.8767C15.3313 34.2955 15.3313 33.3455 14.75 32.7621C14.4688 32.4788 14.0938 32.3246 13.6938 32.3246Z" fill="black"/>
<path d="M12.9083 32.4354C12.2062 32.4354 11.5666 31.9583 11.3916 31.2479C10.7416 28.6104 10.4125 25.8229 10.4125 22.9604C10.4146 10.0854 16.9187 0 25.2229 0C32.5396 0 38.6896 8.09583 39.8437 19.2479C39.9312 20.1063 39.3083 20.8729 38.45 20.9625C37.5896 21.0542 36.825 20.4271 36.7354 19.5687C35.7666 10.1937 30.8166 3.12292 25.225 3.12292C18.8916 3.12292 13.5416 12.2063 13.5416 22.9583C13.5416 25.5688 13.8416 28.1062 14.4291 30.4958C14.6354 31.3333 14.125 32.1812 13.2875 32.3875C13.1583 32.4208 13.0312 32.4354 12.9083 32.4354Z" fill="black"/>
<path d="M21.9146 23.842C21.3521 23.842 20.7917 23.7378 20.2521 23.5316C19.1 23.0878 18.1917 22.2212 17.6896 21.0941C17.1875 19.967 17.1563 18.7107 17.6 17.5607C18.0438 16.4108 18.9084 15.4983 20.0355 14.9983C21.1646 14.5003 22.4188 14.467 23.5688 14.9087C24.7209 15.3524 25.6313 16.217 26.1313 17.3441C27.1646 19.6732 26.1125 22.4087 23.7855 23.4441C23.1875 23.7087 22.55 23.842 21.9146 23.842ZM21.9105 17.7232C21.7042 17.7232 21.498 17.767 21.3042 17.8524C20.9396 18.0149 20.6584 18.3087 20.5146 18.6816C20.373 19.0545 20.3834 19.4607 20.5459 19.8253C20.7084 20.192 21.0021 20.4732 21.375 20.6149C21.7459 20.7566 22.1542 20.7503 22.5188 20.5857C23.273 20.2524 23.6125 19.3649 23.2771 18.6128C23.1146 18.2482 22.8209 17.967 22.448 17.8253C22.273 17.7566 22.0917 17.7232 21.9105 17.7232ZM20.6709 16.4253H20.6917H20.6709Z" fill="black"/>
<path d="M34.3874 50.0045C31.7812 50.0045 28.9874 49.6316 26.1187 48.8545C25.2854 48.6295 24.7937 47.7712 25.0187 46.9378C25.2458 46.1066 26.1062 45.5983 26.9354 45.8399C36.0354 48.3003 44.4083 46.2253 46.4166 41.0024C47.4874 38.2253 46.6791 34.8545 44.1458 31.5149C41.4458 27.9566 37.1687 24.9233 32.0999 22.9733C29.6687 22.0358 27.1958 21.4045 24.7479 21.0962C23.8916 20.9878 23.2854 20.2066 23.3937 19.3503C23.502 18.4941 24.2895 17.8941 25.1395 17.9962C27.8374 18.3358 30.5583 19.0295 33.2229 20.0566C38.8249 22.2128 43.5874 25.6108 46.6354 29.6253C49.8479 33.8587 50.8062 38.2983 49.3354 42.1253C47.3999 47.1441 41.6145 50.0045 34.3874 50.0045Z" fill="black"/>
</g>
<defs>
<clipPath id="clip0">
<rect width="50" height="50" fill="white"/>
</clipPath>
</defs>
</svg>
