<svg width="50" height="50" viewBox="0 0 50 50" fill="none" xmlns="http://www.w3.org/2000/svg">
<path d="M32.8124 34.0229C27.9332 34.0229 23.9624 29.975 23.9624 24.9979C23.9624 20.0208 27.9332 15.9729 32.8124 15.9729C37.6916 15.9729 41.6624 20.0208 41.6624 24.9979C41.6624 29.975 37.6916 34.0229 32.8124 34.0229ZM32.8124 18.0562C29.0812 18.0562 26.0457 21.1708 26.0457 24.9979C26.0457 28.825 29.0812 31.9396 32.8124 31.9396C36.5437 31.9396 39.5791 28.825 39.5791 24.9979C39.5791 21.1708 36.5437 18.0562 32.8124 18.0562Z" fill="black"/>
<path d="M17.1854 50C12.3042 50 8.33334 45.9521 8.33334 40.975C8.33334 37.5125 10.2521 34.4979 13.0604 32.9833C10.2521 31.4687 8.33334 28.4583 8.33334 25C8.33334 21.5417 10.2542 18.5292 13.0646 17.0125C10.2542 15.4979 8.33334 12.4854 8.33334 9.025C8.33334 4.04792 12.3042 0 17.1854 0H32.8167C37.6958 0 41.6667 4.05208 41.6667 9.03333C41.6667 14.0104 37.6958 18.0583 32.8146 18.0583L26.0354 18.0562V40.975C26.0354 45.9521 22.0646 50 17.1854 50ZM17.1854 34.025C13.4542 34.025 10.4167 37.1437 10.4167 40.975C10.4167 44.8021 13.4542 47.9167 17.1854 47.9167C20.9167 47.9167 23.9542 44.8021 23.9542 40.975V17.0146C23.9542 16.4396 24.4208 15.9729 24.9958 15.9729H32.8146H32.8167C34.6208 15.9729 36.3167 15.2542 37.5917 13.9479C38.8771 12.6375 39.5833 10.8917 39.5833 9.03333C39.5833 5.20208 36.5458 2.08333 32.8146 2.08333H17.1854C13.4542 2.08333 10.4167 5.19792 10.4167 9.025C10.4167 12.8521 13.4542 15.9667 17.1854 15.9667C17.7604 15.9667 18.2271 16.4333 18.2271 17.0083C18.2271 17.5833 17.7625 18.05 17.1875 18.05C13.4542 18.0583 10.4167 21.1771 10.4167 25C10.4167 28.8271 13.4542 31.9417 17.1854 31.9417C17.7604 31.9417 18.2271 32.4083 18.2271 32.9833C18.2271 33.5583 17.7604 34.025 17.1854 34.025Z" fill="black"/>
</svg>
