<svg width="50" height="50" viewBox="0 0 50 50" fill="none" xmlns="http://www.w3.org/2000/svg">
<g clip-path="url(#clip0)">
<path d="M24.9999 -0.0415039C19.0636 -0.0412515 13.3211 2.12462 8.79992 6.06858C4.27871 10.0125 1.27381 15.4772 0.322899 21.4848C-0.628014 27.4924 0.537109 33.6509 3.60979 38.8583C6.68247 44.0657 11.4622 47.9823 17.0937 49.9072C18.3437 50.1316 18.8125 49.3626 18.8125 48.6898C18.8125 48.081 18.7812 46.0626 18.7812 43.916C12.5 45.1014 10.875 42.3461 10.375 40.9044C9.82019 39.5022 8.94069 38.2595 7.81251 37.2839C6.93752 36.8033 5.68753 35.6179 7.78124 35.5859C8.5807 35.6748 9.34747 35.96 10.0166 36.4174C10.6857 36.8747 11.2374 37.4906 11.625 38.213C11.9669 38.8428 12.4267 39.3972 12.978 39.8444C13.5292 40.2917 14.1612 40.623 14.8375 40.8195C15.5139 41.0159 16.2215 41.0736 16.9196 40.9892C17.6178 40.9048 18.2929 40.6799 18.9061 40.3276C19.0144 39.0246 19.5808 37.8062 20.4999 36.8995C14.9375 36.2587 9.125 34.0479 9.125 24.2441C9.08987 21.6968 10.0067 19.2321 11.6875 17.3557C10.9232 15.1418 11.0126 12.7121 11.9375 10.5635C11.9375 10.5635 14.0311 9.89063 18.8124 13.1907C22.9031 12.0372 27.2217 12.0372 31.3123 13.1907C36.0935 9.85862 38.1873 10.5635 38.1873 10.5635C39.1123 12.7121 39.2017 15.1418 38.4373 17.3557C40.1231 19.2289 41.0408 21.6957 40.9998 24.2441C40.9998 34.08 35.156 36.2587 29.5936 36.8995C30.1902 37.5195 30.6497 38.2638 30.9409 39.082C31.2321 39.9002 31.3481 40.7731 31.2811 41.6413C31.2811 45.0695 31.2498 47.8248 31.2498 48.6899C31.2498 49.3627 31.7186 50.1637 32.9686 49.9073C38.5902 47.9667 43.3562 44.041 46.4158 38.8309C49.4754 33.6208 50.6294 27.4654 49.6719 21.4637C48.7144 15.4619 45.7077 10.0043 41.1884 6.06515C36.6692 2.126 30.9316 -0.0383387 24.9999 -0.0415039Z" fill="black"/>
</g>
<defs>
<clipPath id="clip0">
<rect width="50" height="50" fill="white"/>
</clipPath>
</defs>
</svg>
