<svg width="50" height="50" viewBox="0 0 50 50" fill="none" xmlns="http://www.w3.org/2000/svg">
<path d="M45.7354 31.0774L45.7437 31.0691L45.7312 31.0774H45.7333H45.7354Z" fill="black"/>
<path d="M39.5646 30.6814L39.5687 30.6856V30.6876L39.5625 30.6897C39.2604 30.8001 39.0104 30.846 38.8 30.9397C38.5854 31.0251 38.4125 31.1814 38.3104 31.3814L38.3083 31.3856C38.1791 31.6251 38.0666 32.0501 38.1 32.773C38.1854 32.8355 38.2896 32.8835 38.3958 32.9168L38.4041 32.9189C38.7562 33.0272 39.3458 33.098 40.0041 33.0876C41.3166 33.073 42.9333 32.7626 43.7916 32.3585C44.5312 32.0064 45.1646 31.5814 45.7291 31.0772C42.8625 31.6772 41.2437 31.5168 40.25 31.1022C39.9916 30.9897 39.7646 30.8501 39.5646 30.6814Z" fill="black"/>
<path d="M36.6249 8.64771L36.6374 8.66645L36.652 8.68312L36.6249 8.64771Z" fill="black"/>
<path d="M25.6605 40.206C25.6584 40.1539 25.6605 40.0997 25.6584 40.0477C25.6584 40.0268 25.6563 40.0122 25.6563 39.9914L25.6605 40.206ZM23.4625 31.0122C23.3417 30.9518 23.2 30.9081 23.048 30.8872H23.0417V30.8831H22.998C22.8896 30.8935 22.7313 30.931 22.423 31.2747C21.7063 32.0872 21.4563 32.5977 20.8646 33.0747C20.273 33.5497 19.5063 33.8039 17.973 34.1227C17.4875 34.2227 17.2084 34.3331 17.025 34.4227C17.0855 34.4727 17.0792 34.4852 17.1688 34.5331C17.3938 34.6581 17.6813 34.7685 17.9146 34.8289C18.573 34.9956 19.6563 35.1893 20.7855 34.9956C21.9146 34.7997 23.0896 34.2518 24.0917 32.8289C24.2646 32.5831 24.2834 32.2206 24.1417 31.831C24 31.4414 23.6834 31.106 23.4625 31.0122ZM31.875 3.12891L31.7563 3.15182C31.7959 3.14349 31.8396 3.13932 31.8792 3.13099C31.8771 3.13099 31.8771 3.12891 31.875 3.12891ZM37.6709 14.3747C36.273 14.3935 35.4896 14.7581 35.0771 15.2352C34.4938 15.9122 34.4396 17.0997 34.8021 18.5622C35.1625 20.0268 35.9063 21.6643 36.6063 23.0247C36.9563 23.706 37.2959 24.3185 37.5688 24.8164C37.8438 25.3164 38.0459 25.6706 38.1688 25.9727C38.2813 26.2518 38.4084 26.4977 38.5355 26.7268C39.0771 25.5706 39.173 24.4352 39.1188 23.2518C39.048 21.7872 38.7105 20.2893 38.7605 18.7727C38.8167 16.9997 39.1625 15.8456 39.1917 14.4747C38.7355 14.4122 38.2063 14.3747 37.6709 14.3747ZM37.9292 15.4289L37.9271 15.4456C37.9271 15.4518 37.9271 15.4581 37.9271 15.4664C37.9271 15.5622 37.9001 15.6539 37.8521 15.7289L37.8542 15.7268C37.7896 15.8456 37.7146 15.9497 37.6271 16.0393C37.423 16.2664 37.15 16.4247 36.8417 16.4789L36.8334 16.481C36.7896 16.4872 36.7396 16.4893 36.6875 16.4893C36.425 16.4893 36.1834 16.406 35.9855 16.2643L35.9896 16.2664C35.8875 16.1956 35.798 16.1143 35.725 16.0227L35.723 16.0206C35.6584 15.9497 35.6125 15.8581 35.5938 15.7602V15.756C35.5938 15.7456 35.5917 15.7352 35.5917 15.7247C35.5917 15.6352 35.625 15.5518 35.6813 15.4893C35.748 15.4122 35.8271 15.3497 35.9188 15.3039L35.923 15.3018C36.1209 15.1893 36.3875 15.106 36.6896 15.0602C36.8021 15.0435 36.9146 15.0352 37.0188 15.0331V15.0393H37.1209C37.2563 15.0435 37.3813 15.0581 37.4917 15.0852C37.6021 15.1102 37.698 15.1477 37.775 15.1997C37.8521 15.2518 37.9105 15.331 37.9292 15.4289ZM14.7438 23.556C14.7438 23.181 14.773 22.8143 14.8271 22.4539L14.823 22.4935C15.0355 20.9539 15.0646 19.5143 15.0396 18.3768C15.0146 17.2685 14.9355 16.531 14.9355 16.0706C14.9355 16.0643 14.9355 16.0581 14.9355 16.0518C14.9355 16.0456 14.9355 16.0372 14.9355 16.031V16.0206L14.9334 16.0081V16.006C14.9334 16.0018 14.9334 15.9997 14.9334 15.9956C14.9334 13.5289 15.3667 11.1643 16.1521 8.97057C16.7292 7.42057 17.5875 5.84766 18.873 4.57266C17.6084 4.15182 15.3667 3.51016 12.9375 3.38932C12.7042 3.37682 12.4313 3.36849 12.1584 3.36849H12.1563V3.37057C11.8959 3.37057 11.6334 3.37891 11.375 3.39349C9.29587 3.51432 7.32921 4.12474 5.92504 5.63307C4.51671 7.14141 3.58962 9.61432 3.79171 13.7081C3.83129 14.4831 4.16462 16.6539 4.73546 19.2331C5.30837 21.8122 6.11462 24.8477 7.08546 27.5289C8.05837 30.2102 9.23754 32.5435 10.3584 33.6477C10.923 34.1997 11.4125 34.4227 11.8563 34.4039C12.3021 34.3831 12.8396 34.1227 13.4959 33.3247C14.7855 31.7539 16.0042 30.3643 17.2625 29.0143L17.2209 29.0581C15.7 27.7143 14.7438 25.7497 14.7438 23.556Z" fill="black"/>
<path d="M25.825 3.26662V3.26245C23.3916 3.2687 21.6479 4.01245 20.3229 5.12703C18.9583 6.27912 18.0437 7.8562 17.4416 9.47078C16.727 11.3875 16.4833 13.2416 16.3854 14.5L16.4125 14.4833C17.1479 14.0666 18.1125 13.65 19.1458 13.4083C20.1791 13.1666 21.2916 13.0937 22.3 13.4895C23.3083 13.8854 24.1416 14.8166 24.4437 16.2291C25.8916 23.0145 23.9937 25.5375 23.2937 27.4416C23.0708 27.9895 22.8395 28.6937 22.6458 29.4125L22.6125 29.552C22.7 29.5312 22.7895 29.5062 22.877 29.4979C23.3708 29.4562 23.7583 29.6229 23.9875 29.7229C24.6916 30.0187 25.175 30.6395 25.4354 31.3479C25.5041 31.5333 25.5521 31.7333 25.5812 31.9395C25.6083 32.0104 25.6229 32.0937 25.6229 32.1791C25.6229 32.1875 25.6229 32.1958 25.6229 32.2041C25.5896 33.2458 25.5687 34.4687 25.5687 35.6979C25.5687 37.1541 25.5979 38.6041 25.6521 40.0479C25.7 41.1437 25.7687 42.1145 25.8541 42.8791C25.9437 43.6583 26.0687 44.2479 26.1479 44.4479C26.4104 45.1145 26.7958 45.9874 27.4916 46.5812C28.1875 47.1729 29.1854 47.5687 31.0083 47.1729C32.5896 46.8291 33.5646 46.352 34.2166 45.6666C34.8687 44.9812 35.2562 44.027 35.5041 42.5666C35.8771 40.3791 36.625 34.0354 36.7166 32.8416C36.675 31.9416 36.8062 31.25 37.0916 30.7229C37.3833 30.1812 37.8375 29.8499 38.2271 29.6708C38.4229 29.5812 38.6062 29.5208 38.7562 29.477C38.5729 29.2125 38.4083 28.9916 38.2375 28.777L38.2562 28.8C37.7166 28.1416 37.2562 27.3854 36.9083 26.5708L36.8854 26.5104C36.675 26.075 36.4979 25.7458 36.3125 25.4229L36.3562 25.5041C36.0833 25.0041 35.7375 24.3791 35.375 23.677C34.65 22.2708 33.8625 20.5666 33.4521 18.9062C33.0437 17.2479 32.9854 15.5312 34.0312 14.3208C34.9562 13.2458 36.5833 12.8 39.0229 13.05C38.9521 12.8312 38.9083 12.65 38.7854 12.3583C38.1916 10.9625 37.4771 9.75828 36.6291 8.66662C34.5604 5.99578 31.2166 3.35203 26.0541 3.26662H25.825ZM24.2125 34.7208C24.2125 34.7458 24.2125 34.7687 24.2125 34.7937V34.7208Z" fill="black"/>
<path d="M16.3563 16.1878L16.3604 16.1857L16.3667 16.1794L16.3563 16.1878Z" fill="black"/>
<path d="M29.6479 0.876726C29.6833 0.866309 29.7208 0.862142 29.7541 0.853809L29.7958 0.841309L29.6479 0.876726Z" fill="black"/>
<path d="M19.4188 14.7769L19.4396 14.7748L19.4563 14.7686L19.4188 14.7769Z" fill="black"/>
<path d="M22 26.9525C22.8354 24.6733 24.4792 23.0108 23.0958 16.5233C22.8687 15.4608 22.4208 15.0317 21.8042 14.79C21.5042 14.6796 21.1562 14.615 20.7917 14.615C20.7687 14.615 20.7437 14.615 20.7208 14.615H20.725C20.2812 14.6192 19.8521 14.6754 19.4396 14.7754C18.5646 14.9962 17.7937 15.3087 17.0771 15.7087C16.8083 15.8567 16.5771 16.0108 16.3604 16.1837L16.3208 16.2212C16.3333 16.5254 16.3917 17.2629 16.4167 18.3483C16.4417 19.5358 16.4125 21.0504 16.1854 22.69C15.6938 26.2525 18.2479 29.2025 21.2479 29.2067C21.425 28.4754 21.7125 27.7337 22 26.9525ZM20.2271 16.6004C20.1292 16.5004 20.05 16.3879 19.9854 16.265L19.9812 16.2567C19.9271 16.1692 19.8958 16.0629 19.8958 15.9483C19.8958 15.9275 19.8979 15.9067 19.9 15.8858V15.8879C19.9312 15.6629 20.1146 15.5462 20.2917 15.4817C20.4562 15.4275 20.6396 15.3962 20.8354 15.3962C20.8646 15.3962 20.8937 15.3962 20.9271 15.3983L20.925 15.39C21.0333 15.39 21.15 15.4004 21.2667 15.4171C21.5812 15.4608 21.8625 15.5462 22.075 15.6712C22.1812 15.7296 22.2729 15.8025 22.3458 15.89L22.3479 15.8921C22.4187 15.9733 22.4604 16.0796 22.4604 16.1983C22.4604 16.215 22.4604 16.2317 22.4583 16.2483V16.2462C22.4375 16.3712 22.3812 16.4796 22.3042 16.5671C22.2187 16.6712 22.1229 16.7608 22.0146 16.8358L22.0104 16.8379C21.8 16.9921 21.5354 17.0837 21.25 17.0837C21.1937 17.0837 21.1375 17.0796 21.0833 17.0733H21.0896C20.7437 17.015 20.4479 16.8442 20.2271 16.6004Z" fill="black"/>
<path d="M17.0354 15.7294C17.05 15.721 17.0646 15.7169 17.0771 15.7085C17.0791 15.7085 17.0812 15.7065 17.0833 15.7044L17.0354 15.7294ZM37.7396 7.81688C38.6417 8.97313 39.4229 10.2898 40.025 11.7023L40.0687 11.8169C40.2958 12.3669 40.4479 12.8315 40.5333 13.1919C40.5771 13.3731 40.6062 13.5252 40.6167 13.6835C40.6208 13.7627 40.625 13.844 40.5917 13.9835C40.5917 13.9898 40.5812 14.0044 40.5792 14.0106C40.6417 15.8356 40.1937 17.0731 40.1417 18.8148C40.1 20.0773 40.4187 21.5606 40.4979 23.1794C40.5729 24.7002 40.3917 26.371 39.4146 28.0106C39.4979 28.1106 39.5708 28.2106 39.65 28.3106C42.2312 24.196 44.0917 19.644 45.0833 15.7627C45.6146 13.6731 45.8958 11.7794 45.9208 10.2794C45.9417 8.77938 45.6646 7.69188 45.3146 7.23771C42.5521 3.66271 38.8167 2.75229 35.6833 2.72729V2.72938H35.3833C34.175 2.74813 33.0083 2.88771 31.8812 3.13146C34.4396 4.28146 36.3771 6.0523 37.7396 7.81688Z" fill="black"/>
<path d="M26.1688 0.5375H26.1479C23.7229 0.495833 21.6417 1.09167 19.9604 2.08333C18.3063 1.50208 14.875 0.5 11.2563 0.7C8.73753 0.839583 5.98753 1.61458 3.95003 3.79167C1.91878 5.96875 0.84586 9.3375 1.07086 13.9208C1.13336 15.1854 1.48961 17.2479 2.07919 19.9187C2.67086 22.5896 3.50003 25.7167 4.53544 28.5688C5.57086 31.4229 6.70419 33.9854 8.47711 35.7271C9.36253 36.6 10.5813 37.3333 12.0167 37.2729C13.025 37.2313 13.9354 36.7833 14.7229 36.1229C15.1063 36.6333 15.5146 36.8563 15.8875 37.0625C16.3563 37.3229 16.8125 37.5 17.2854 37.6167C18.1354 37.8312 19.5896 38.1187 21.2938 37.825C21.875 37.7271 22.4854 37.5354 23.0938 37.2625C23.1167 37.95 23.1438 38.6229 23.1688 39.3042C23.2542 41.4625 23.3063 43.4562 23.9459 45.2042C24.0479 45.4896 24.3313 46.9604 25.4417 48.2583C26.5521 49.5583 28.7313 50.3687 31.2104 49.8312C32.9604 49.4521 35.1834 48.7687 36.6625 46.6396C38.1229 44.5354 38.7813 41.5167 38.9125 36.6208C38.9459 36.3562 38.9855 36.1312 39.025 35.9208L39.3729 35.9521H39.4146C41.2813 36.0375 43.3063 35.7687 44.998 34.9729C46.4959 34.2708 47.6292 33.5604 48.4563 32.3C48.6625 31.9875 48.8875 31.6104 48.95 30.9604C49.0125 30.3104 48.6438 29.2937 48.0313 28.825C46.8063 27.8833 46.0375 28.2417 45.2125 28.4146C44.4771 28.5875 43.6271 28.6958 42.7563 28.7187H42.7396C45.1188 24.6625 46.825 20.3542 47.798 16.5417C48.375 14.2917 48.6979 12.2167 48.7229 10.4021C48.75 8.5875 48.6042 6.98125 47.5292 5.59167C44.1729 1.25 39.4542 0.05 35.8021 0.00833333C35.6896 0.00625 35.575 0.00416667 35.4625 0.00625V0C33.475 0.0166667 31.5625 0.316667 29.7521 0.852083L29.6667 0.88125C28.6209 0.685417 27.4063 0.560417 26.1688 0.5375ZM31.1042 1.86458C32.3792 1.55 33.8459 1.36042 35.3542 1.34167H35.3667L35.3688 1.33333C38.8229 1.3 43.2334 2.28125 46.4021 6.37917C47.1146 7.3 47.3271 8.64583 47.3021 10.3042C47.275 11.9604 46.9729 13.9437 46.4188 16.1167C45.3438 20.325 43.3146 25.2312 40.4563 29.6333C40.55 29.7021 40.6584 29.7625 40.7709 29.8083L40.7813 29.8125C41.3771 30.0625 42.7375 30.2771 45.4521 29.7125C46.1354 29.5667 46.6355 29.4687 47.1542 29.8687C47.3875 30.0687 47.5334 30.3646 47.5334 30.6958C47.5334 30.7167 47.5334 30.7375 47.5313 30.7583V30.7562C47.5 31.0208 47.4063 31.2583 47.2625 31.4562C46.7375 32.2542 45.7021 33.0104 44.3771 33.6333C43.2021 34.1875 41.5167 34.4771 40.0229 34.4937C39.2729 34.5021 38.5834 34.4437 37.9959 34.2583L37.9584 34.2437C37.7313 36.4521 37.2104 40.8125 36.8709 42.8021C36.6 44.4062 36.125 45.6812 35.2167 46.6354C34.3104 47.5896 33.0292 48.1646 31.3042 48.5396C29.1688 49.0042 27.6104 48.5042 26.6063 47.6479C25.6042 46.7937 25.1459 45.6604 24.8688 44.9667C24.6792 44.4875 24.5813 43.8667 24.4854 43.0375C24.3896 42.2083 24.3209 41.1938 24.2729 40.05C24.2271 38.8875 24.2021 37.5208 24.2021 36.1479C24.2021 35.6958 24.2063 35.2458 24.2104 34.7938C23.35 35.5938 22.2625 36.1562 21.0542 36.3708L21.0167 36.3771C19.5979 36.6208 18.3334 36.3812 17.5771 36.1896C17.175 36.0875 16.825 35.9437 16.4959 35.7646C16.15 35.5771 15.8209 35.3625 15.6 34.9437C15.5125 34.7833 15.4604 34.5896 15.4604 34.3854C15.4604 34.3042 15.4688 34.2229 15.4854 34.1479C15.5604 33.8688 15.7167 33.6312 15.9313 33.4646L15.9334 33.4625C16.3417 33.1271 16.8792 32.9396 17.6938 32.7687C19.1729 32.4604 19.6896 32.25 20.0042 31.9979C20.2709 31.7812 20.575 31.3438 21.1084 30.7021C21.1063 30.6833 21.1042 30.6521 21.1021 30.6229V30.6167C20.0938 30.5875 19.1542 30.3146 18.3334 29.8542L18.3646 29.8708C18.0563 30.2 16.4792 31.8875 14.5584 34.2292C13.75 35.2083 12.8563 35.7708 11.9146 35.8104C10.9729 35.85 10.1209 35.3708 9.39586 34.6604C7.94794 33.2375 6.79378 30.7896 5.78753 28.0229C4.78336 25.2563 3.96669 22.175 3.38544 19.55C2.80211 16.925 2.46044 14.8083 2.41044 13.7875C2.19378 9.45 3.19586 6.52708 4.91461 4.68333C6.63544 2.83958 8.99378 2.14167 11.2917 2.00833C15.4188 1.76875 19.3354 3.225 20.1292 3.5375C21.6584 2.4875 23.6271 1.83333 26.0834 1.875C27.3209 1.89375 28.5104 2.05833 29.6479 2.35208L29.5438 2.32917L29.5854 2.31042C29.9834 2.16042 30.4917 2.00833 31.0125 1.88333L31.1042 1.86458Z" fill="black"/>
</svg>
