<svg width="50" height="50" viewBox="0 0 50 50" fill="none" xmlns="http://www.w3.org/2000/svg">
<path d="M2.60419 45.5021C2.60419 47.9979 4.59794 50 7.09585 50H42.9063C45.4021 50 47.3959 47.9979 47.3959 45.5021V4.5C47.3979 2 45.4042 0 42.9063 0H7.09585C4.59794 0 2.60419 2 2.60419 4.5V45.5021ZM5.10002 4.5C5.10002 3.375 5.97294 2.49792 7.09585 2.49792H42.9063C44.0271 2.49792 44.9021 3.375 44.9021 4.5V45.5021C44.9021 46.625 44.0271 47.5021 42.9063 47.5021H7.09585C5.97294 47.5021 5.10002 46.625 5.10002 45.5021V4.5Z" fill="black"/>
<path d="M27.9355 24.8752C30.4313 24.8752 31.0543 26.2502 31.0543 27.5002V42.5002H36.0459V27.5002C36.1688 27.1273 36.1688 24.3732 34.048 22.2502C33.0522 21.2502 31.1793 20.0002 28.0605 20.0002C24.6897 20.0002 21.1959 20.8773 18.7022 21.7502V7.50024H13.7105V29.1252L17.2043 27.5002C17.2043 27.5002 22.9438 24.8752 27.9355 24.8752ZM36.1688 7.50024H31.1793C30.6772 10.3732 29.4313 13.0002 27.4334 15.6252H32.4251C34.6709 13.0002 35.7938 10.3732 36.1688 7.50024Z" fill="black"/>
<path d="M13.8331 42.4982L19.4477 37.5002L13.8331 32.5002V42.4982Z" fill="black"/>
</svg>
