<svg width="50" height="50" viewBox="0 0 200 199" fill="none" xmlns="http://www.w3.org/2000/svg">
<path d="M118.757 196.97L118.815 109.966L198.052 65.3241V153.06L118.757 196.97ZM37.4595 153.06V65.3229L116.815 109.966L116.757 196.971L37.4595 153.06ZM197.001 63.6205L117.815 108.234L38.5113 63.6198L117.756 19.7378L197.001 63.6205Z" stroke="#AE4F2F" stroke-width="2"/>
<path d="M40 69L95.9999 100C100.962 102.754 106.397 105.437 109.5 108.5C112.633 111.579 113.203 112.619 114.597 115.806C116.021 119.01 115.601 122.224 115.338 125.45C115.075 128.675 114.381 133.122 112.552 136.168C110.291 139.932 109.179 141.454 105.565 143.356C101.969 145.23 97.829 146.017 93.1465 145.717L108.5 189.5L80.3038 174L68.8669 141.386L63.3965 138.35L63.3965 164.5L40 151.5L40 69ZM66.117 124.625C68.2394 125.803 70.3102 126.569 72.3294 126.923C74.3486 127.277 76.7648 128.055 78.552 127.668C80.3564 127.251 82.0613 126.538 83.552 125.45C85.06 124.333 86.5165 122.892 87.552 121.168C88.5875 119.444 88.7029 115.091 88.7029 115.091C88.9554 113.277 88.8094 111.53 88.2648 109.848C87.7376 108.138 86.8095 106.531 85.4807 105.027C84.1518 103.524 82.4262 102.183 80.3038 101.005L65.819 94.4963L64.5476 123.754L66.117 124.625Z" fill="#AE4F2F"/>
<path d="M120.052 111.168L148.329 95.3121L172.542 143.74L172 81.5L196 68L180.5 160L160.5 171L120.052 111.168Z" fill="#AE4F2F"/>
<path d="M118 22L148.978 39.2817C154.914 42.5377 160.137 44.9761 163.79 48.3829C167.491 51.7775 170.162 54.1945 171.803 57.6338C173.444 61.0732 173.119 62.494 172.829 65.8962C172.587 69.2863 169.54 74.7194 169.54 74.7194C169.54 74.7194 165.564 78.9455 162.738 80.8635C159.959 82.7694 152.882 85.5314 152.882 85.5314C152.882 85.5314 145.883 87.9754 141.17 86.9305C136.486 85.9022 131.394 83.8617 125.894 80.8092L92.6322 61.3581L64 76L42.5 64L118 22ZM104.167 54.227C106.247 55.343 129.346 69.2376 131.305 69.5588C134.84 70.6913 138.414 71.6782 140.142 71.2576C141.886 70.8082 143.995 70.1428 145.443 68.9926C146.939 67.8302 148.109 66.9834 149.213 65.1444C150.301 63.3341 150.985 61.5304 151.268 59.7331C151.55 57.9359 151.434 56.2048 150.919 54.54C150.452 52.863 149.592 51.2748 148.34 49.7755C147.118 48.2928 129.014 39.031 127.015 37.8454L104.167 54.227Z" fill="#AE4F2F"/>
</svg>
