<svg width="50" height="50" viewBox="0 0 50 50" fill="none" xmlns="http://www.w3.org/2000/svg">
<path d="M19.7292 45.0524L19.743 24.7058L38.2825 14.2606V34.7785L19.7292 45.0524ZM0.464355 34.7785V14.2602L19.0321 24.7058L19.0183 45.0529L0.464355 34.7785ZM37.909 13.6551L19.3875 24.0901L0.838216 13.6548L19.3734 3.39087L37.909 13.6551Z" stroke="#64FFDA" stroke-width="0.7109"/>
<path d="M2.80104 17.5355L14.0297 23.9254C15.0522 24.4928 15.4516 24.6325 16.0887 25.2675C16.7319 25.9057 16.7252 26.059 17.0083 26.7225C17.2976 27.3895 17.2592 28.0206 17.1993 28.6948C17.1393 29.3689 17.0582 30.2983 16.6744 30.9374C16.2 31.7272 15.9672 32.0469 15.2159 32.4497C14.4683 32.8469 14.2311 33.013 13.2623 32.9576L16.0608 41.4547L10.085 38.158L8.24388 32.0912L7.11665 31.4656L7.07488 36.6142L2.56274 34.1422L2.80104 17.5355ZM7.70308 28.5943C8.14042 28.8369 8.56777 28.9938 8.98511 29.0647C9.40248 29.1355 9.90132 29.2941 10.2719 29.2104C10.6461 29.1206 11.0002 28.9689 11.3106 28.7393C11.6247 28.5035 11.9286 28.2005 12.1459 27.8386C12.3632 27.4768 12.3944 26.5675 12.3944 26.5675C12.4498 26.1884 12.4225 25.8234 12.3126 25.4732C12.2064 25.1168 12.2264 24.9841 11.9539 24.6721C11.7072 24.3896 11.1154 24.09 10.678 23.8473L7.69246 22.3016L7.37969 28.4149L7.70308 28.5943Z" fill="#64FFDA"/>
<path d="M20.1545 26.1061L26.1444 22.8227L32.119 33.3507V19.4452L37.3347 16.3904L34.2541 35.4663L29.3963 38.1914L20.1545 26.1061Z" fill="#64FFDA"/>
<path d="M20.7423 6.1416L25.3144 8.61558C26.649 9.34774 27.0172 9.40219 27.8417 10.1631C28.6765 10.9215 29.0334 11.7222 29.0334 11.7222C29.0334 11.7222 29.5182 12.5378 29.4135 13.4703C29.3087 14.4029 28.6217 15.3684 28.6217 15.3684C28.6217 15.3684 27.9229 16.2312 27.235 16.7637C26.5473 17.2961 25.9203 17.4525 25.0035 17.7003C23.939 17.9881 22.8915 18.0214 22.1859 18.0125C21.4803 18.0037 20.9077 17.8129 19.6712 17.1267L14.6987 13.9091L8.88445 16.8749L4.50232 14.6239L20.7423 6.1416ZM17.2627 12.3545C17.7301 12.6056 21.13 15.0458 21.5689 15.1207C22.3617 15.3783 22.7116 15.1574 23.097 15.0677C23.4862 14.9718 23.9563 14.8288 24.2777 14.5772C24.6097 14.3231 24.8694 14.1381 25.1125 13.7334C25.3516 13.3351 25.6462 12.8872 25.7054 12.4902C25.7646 12.0931 25.8132 11.7622 25.6947 11.3929C25.5864 11.0209 25.6187 11.1123 25.3355 10.7782C25.0592 10.4477 22.7882 9.26354 22.3388 8.99729L17.2627 12.3545Z" fill="#64FFDA"/>
</svg>
