<svg width="50" height="50" viewBox="0 0 211 199" fill="none" xmlns="http://www.w3.org/2000/svg">
<path d="M83.2573 184.121L83.3152 98.2583L161.552 54.1797V140.765L83.2573 184.121ZM1.95947 140.765V54.1778L80.3152 98.2583L80.2573 184.123L1.95947 140.765ZM159.976 51.6242L81.8153 95.66L3.53716 51.6233L81.7556 8.30935L159.976 51.6242Z" stroke="#AE4F2F" stroke-width="3"/>
<path d="M11.8206 68L59.2057 94.9651C63.5206 97.3598 65.2061 97.9492 67.8944 100.629C70.6088 103.322 70.5805 103.969 71.7752 106.769C72.996 109.584 72.8342 112.247 72.5811 115.092C72.3281 117.937 71.9859 121.859 70.366 124.556C68.3642 127.889 67.3817 129.238 64.2114 130.938C61.0564 132.614 60.0553 133.315 55.9672 133.081L67.7768 168.939L42.5591 155.027L34.7894 129.425L30.0325 126.785L29.8562 148.512L10.815 138.08L11.8206 68ZM32.5072 114.668C34.3528 115.692 36.1562 116.354 37.9174 116.653C39.6787 116.952 41.7838 117.621 43.3477 117.268C44.9268 116.889 46.4212 116.249 47.7311 115.28C49.0564 114.285 50.339 113.006 51.2559 111.479C52.1728 109.952 52.3047 106.115 52.3047 106.115C52.5382 104.515 52.4232 102.975 51.9595 101.497C51.5112 99.9928 51.5955 99.433 50.4455 98.1163C49.4044 96.9243 46.9071 95.6601 45.0615 94.6359L32.4624 88.113L31.1425 113.911L32.5072 114.668Z" fill="#AE4F2F"/>
<path d="M85.0519 104.168L110.329 90.3121L135.542 134.74V76.059L157.552 63.1676L144.552 143.668L124.052 155.168L85.0519 104.168Z" fill="#AE4F2F"/>
<path d="M87.5329 19.9178L106.827 30.358C112.459 33.4477 114.013 33.6775 117.492 36.8887C121.015 40.0889 122.521 43.4679 122.521 43.4679C122.521 43.4679 124.567 46.9099 124.125 50.8451C123.683 54.7803 120.784 58.8549 120.784 58.8549C120.784 58.8549 117.835 62.4961 114.932 64.743C112.03 66.9899 109.384 67.6498 105.515 68.6957C101.023 69.9101 96.6023 70.0505 93.6247 70.0132C90.647 69.976 88.2309 69.1707 83.0126 66.2748L62.0286 52.6967L37.4926 65.2125L19 55.7129L87.5329 19.9178ZM72.8486 46.1364C74.8214 47.1957 89.1689 57.4935 91.0208 57.8098C94.3666 58.8968 95.8433 57.9643 97.4695 57.5861C99.1118 57.1813 101.096 56.5778 102.452 55.5162C103.853 54.4436 104.949 53.6629 105.975 51.9554C106.984 50.2745 108.227 48.3842 108.477 46.7087C108.727 45.0332 108.932 43.6367 108.432 42.0782C107.975 40.5086 108.111 40.8943 106.916 39.4841C105.75 38.0897 96.1663 33.0924 94.2699 31.9688L72.8486 46.1364Z" fill="#AE4F2F"/>
</svg>
